<svg width="311" height="75" viewBox="0 0 311 75" fill="none" xmlns="http://www.w3.org/2000/svg">
<path d="M12.9097 0.799995H28.7037L40.7877 75H29.1277L27.0077 60.266V60.478H13.7577L11.6377 75H0.825711L12.9097 0.799995ZM25.6297 50.408L20.4357 13.732H20.2237L15.1357 50.408H25.6297ZM46.4446 0.799995H61.0726L72.4146 45.214H72.6266V0.799995H83.0146V75H71.0366L57.0446 20.834H56.8326V75H46.4446V0.799995ZM91.681 0.799995H106.309L117.651 45.214H117.863V0.799995H128.251V75H116.273L102.281 20.834H102.069V75H91.681V0.799995ZM145.927 0.799995H161.721L173.805 75H162.145L160.025 60.266V60.478H146.775L144.655 75H133.843L145.927 0.799995ZM158.647 50.408L153.453 13.732H153.241L148.153 50.408H158.647ZM179.462 0.799995H210.308V11.4H191.122V32.07H206.174V42.67H191.122V75H179.462V0.799995ZM215.9 0.799995H227.56V64.4H246.746V75H215.9V0.799995ZM252.337 0.799995H263.997V75H252.337V0.799995ZM283.012 37.052L270.186 0.799995H282.482L290.326 24.756H290.538L298.594 0.799995H309.618L296.792 37.052L310.254 75H297.958L289.478 49.136H289.266L280.574 75H269.55L283.012 37.052Z" fill="#E50913"/>
</svg>
