<svg width="28" height="26" viewBox="0 0 28 26" fill="none" xmlns="http://www.w3.org/2000/svg">
<mask id="path-1-inside-1_314_199" fill="white">
<path fill-rule="evenodd" clip-rule="evenodd" d="M6 15.9342C2.60771 15.4836 0 12.7746 0 9.5C0 5.91015 3.13401 3 7 3C7.03338 3 7.0667 3.00022 7.09997 3.00065C8.34382 1.19613 10.5215 0 13 0C15.5917 0 17.8545 1.30789 19.0646 3.25165C19.6792 3.08778 20.3286 3 21 3C24.866 3 28 5.91015 28 9.5C28 12.7746 25.3923 15.4836 22 15.9342V24C22 24 17.1786 25.5 14 25.5C10.8214 25.5 6 24 6 24V15.9342Z"/>
</mask>
<path d="M6 15.9342H8V14.1823L6.26333 13.9516L6 15.9342ZM7.09997 3.00065L7.07397 5.00048L8.14103 5.01435L8.74667 4.13571L7.09997 3.00065ZM19.0646 3.25165L17.3667 4.30865L18.1492 5.56554L19.5797 5.18415L19.0646 3.25165ZM22 15.9342L21.7367 13.9516L20 14.1823V15.9342H22ZM22 24L22.5941 25.9097L24 25.4723V24H22ZM6 24H4V25.4723L5.40586 25.9097L6 24ZM6.26333 13.9516C3.7365 13.616 2 11.6473 2 9.5H-2C-2 13.9019 1.47891 17.3512 5.73667 17.9168L6.26333 13.9516ZM2 9.5C2 7.15171 4.09641 5 7 5V1C2.1716 1 -2 4.66858 -2 9.5H2ZM7 5C7.02467 5 7.04933 5.00016 7.07397 5.00048L7.12597 1.00082C7.08407 1.00027 7.04208 1 7 1V5ZM8.74667 4.13571C9.60961 2.8838 11.1657 2 13 2V-2C9.87729 -2 7.07802 -0.491538 5.45327 1.86559L8.74667 4.13571ZM13 2C14.9194 2 16.5314 2.96689 17.3667 4.30865L20.7624 2.19465C19.1776 -0.351117 16.2641 -2 13 -2V2ZM19.5797 5.18415C20.0272 5.06488 20.5033 5 21 5V1C20.1538 1 19.3313 1.11068 18.5494 1.31915L19.5797 5.18415ZM21 5C23.9036 5 26 7.15171 26 9.5H30C30 4.66858 25.8284 1 21 1V5ZM26 9.5C26 11.6473 24.2635 13.616 21.7367 13.9516L22.2633 17.9168C26.5211 17.3512 30 13.9019 30 9.5H26ZM20 15.9342V24H24V15.9342H20ZM22 24C21.4059 22.0903 21.406 22.0902 21.4062 22.0902C21.4062 22.0902 21.4063 22.0902 21.4063 22.0901C21.4064 22.0901 21.4064 22.0901 21.4064 22.0901C21.4063 22.0902 21.4059 22.0903 21.4052 22.0905C21.4038 22.0909 21.4013 22.0917 21.3976 22.0928C21.3904 22.0951 21.3786 22.0987 21.3626 22.1035C21.3306 22.1133 21.2815 22.1281 21.217 22.1473C21.0878 22.1857 20.8971 22.2414 20.6572 22.3086C20.1765 22.4434 19.5032 22.6232 18.7363 22.8026C17.1595 23.1715 15.3467 23.5 14 23.5V27.5C15.8319 27.5 18.0191 27.0785 19.6477 26.6974C20.4834 26.5018 21.2142 26.3066 21.7368 26.1601C21.9986 26.0868 22.2093 26.0253 22.3563 25.9816C22.4298 25.9598 22.4874 25.9424 22.5275 25.9302C22.5476 25.924 22.5633 25.9192 22.5745 25.9158C22.5801 25.9141 22.5845 25.9127 22.5878 25.9117C22.5895 25.9112 22.5908 25.9107 22.5919 25.9104C22.5924 25.9103 22.5928 25.9101 22.5932 25.91C22.5934 25.9099 22.5936 25.9099 22.5937 25.9098C22.5939 25.9098 22.5941 25.9097 22 24ZM14 23.5C12.6533 23.5 10.8405 23.1715 9.26367 22.8026C8.49678 22.6232 7.82354 22.4434 7.34283 22.3086C7.10292 22.2414 6.91216 22.1857 6.78301 22.1473C6.71847 22.1281 6.6694 22.1133 6.63738 22.1035C6.62137 22.0987 6.60964 22.0951 6.60236 22.0928C6.59872 22.0917 6.5962 22.0909 6.59483 22.0905C6.59414 22.0903 6.59373 22.0902 6.59362 22.0901C6.59356 22.0901 6.59357 22.0901 6.59366 22.0901C6.5937 22.0902 6.59382 22.0902 6.59385 22.0902C6.59398 22.0902 6.59414 22.0903 6 24C5.40586 25.9097 5.40605 25.9098 5.40626 25.9098C5.40636 25.9099 5.40659 25.9099 5.40678 25.91C5.40716 25.9101 5.40761 25.9103 5.40814 25.9104C5.4092 25.9107 5.41055 25.9112 5.41219 25.9117C5.41547 25.9127 5.41991 25.9141 5.42549 25.9158C5.43666 25.9192 5.45238 25.924 5.47246 25.9302C5.51262 25.9424 5.57024 25.9598 5.64374 25.9816C5.79068 26.0253 6.00141 26.0868 6.26318 26.1601C6.78581 26.3066 7.51657 26.5018 8.35235 26.6974C9.9809 27.0785 12.1681 27.5 14 27.5V23.5ZM8 24V15.9342H4V24H8Z" fill="url(#paint0_linear_314_199)" mask="url(#path-1-inside-1_314_199)"/>
<path fill-rule="evenodd" clip-rule="evenodd" d="M9.6547 12.0968C9.24769 11.6618 9 11.0862 9 10.455C9 9.09915 10.1429 8 11.5526 8C12.5912 8 13.4849 8.59651 13.8836 9.45274C14.2865 8.60677 15.1746 8.01913 16.2055 8.01913C17.6153 8.01913 18.7581 9.11828 18.7581 10.4742C18.7581 11.0936 18.5195 11.6595 18.1259 12.0915L18.1539 12.0995L13.8995 17.0096L9.64506 12.0995L9.6547 12.0968Z" fill="#E50913"/>
<defs>
<linearGradient id="paint0_linear_314_199" x1="14" y1="0" x2="14" y2="25.5" gradientUnits="userSpaceOnUse">
<stop stop-color="#FFEB00"/>
<stop offset="0.255208" stop-color="#FFAC00"/>
<stop offset="0.432292" stop-color="#FF3C3C"/>
<stop offset="0.614583" stop-color="#BD00FF"/>
<stop offset="0.791667" stop-color="#0085FF"/>
<stop offset="1" stop-color="#6BFF5F"/>
</linearGradient>
</defs>
</svg>
