<svg width="39" height="40" viewBox="0 0 39 40" fill="none" xmlns="http://www.w3.org/2000/svg">
<path d="M18.5 1H19.5L38.5 8L19.5 22H18.5L0.5 8.5L18.5 1Z" fill="#C215FF"/>
<path d="M0.5 30.3602V8.74557L19 16.3353V38.4371C19 38.802 18.6218 39.044 18.2905 38.8911L0.79047 30.8141C0.613395 30.7324 0.5 30.5552 0.5 30.3602Z" fill="#FFEB00" stroke="#B1060F"/>
<path d="M19 37.9976V16.3416L38.5 8.73185V30.2579C38.5 30.4594 38.3789 30.6413 38.193 30.7191L19.693 38.4589C19.3635 38.5967 19 38.3547 19 37.9976Z" fill="#FF007A" stroke="#B1060F"/>
<path d="M0.5 8L19 1L38.5 8" stroke="#B1060F" stroke-linecap="round"/>
</svg>
