<svg width="30" height="27" viewBox="0 0 30 27" fill="none" xmlns="http://www.w3.org/2000/svg">
<path d="M2 10.1249L19.7581 23.1249L16.7581 26.1249H10.2581L2 10.1249Z" fill="#FFEB00"/>
<path d="M2.5 10.1249L21.5 13.6249L23 19.6249L20 23.1249L2.5 10.1249Z" fill="#FF007A"/>
<path d="M6.5 19.1249L10 25.6249L1 19.1249H6.5Z" fill="#FF3C3C"/>
<path d="M11 8.62488L18.5 12.6249L10.5 11.6249L11 8.62488Z" fill="#C215FF"/>
<path d="M22 1.12488L28.5 5.62488H19L22 1.12488Z" fill="#53ACFF"/>
<path d="M23 6.12488L26 14.1249L23.5 19.1249L19 6.12488H23Z" fill="#6BFF5F"/>
<line x1="1.68092" y1="10.3155" x2="10.1907" y2="25.444" stroke="#B1060F" stroke-linecap="square"/>
<path d="M10 26.1249H17" stroke="#B1060F" stroke-linecap="round"/>
<path d="M2 10.1249L19.3037 22.7277" stroke="#B1060F" stroke-linecap="round"/>
<path d="M17 26.1249L23.5 19.6249L26 14.1249" stroke="#B1060F" stroke-linecap="round"/>
<path d="M22.5152 19.2471L22.6374 19.7319L23.6071 19.4875L23.4848 19.0026L22.5152 19.2471ZM23.4848 19.0026L21.9899 13.0733L21.0202 13.3178L22.5152 19.2471L23.4848 19.0026Z" fill="#B1060F"/>
<path d="M2 10.1249L21.0981 13.6346" stroke="#B1060F" stroke-linecap="round"/>
<path d="M21.4604 13.1936L19 6.12487L19 5.62488L22 1.12488" stroke="#B1060F" stroke-linecap="round"/>
<path d="M26 14.1249L23 6.12488" stroke="#B1060F" stroke-linecap="round"/>
<path d="M19 6.12488L29 6.12488" stroke="#B1060F" stroke-linecap="round"/>
<path d="M22 1.12488L29 6.12488" stroke="#B1060F" stroke-linecap="round"/>
<path d="M10 26.1249L1 19.1249" stroke="#B1060F" stroke-linecap="round"/>
<path d="M1 18.6249C0.723858 18.6249 0.5 18.8487 0.5 19.1249C0.5 19.401 0.723858 19.6249 1 19.6249V18.6249ZM6 19.6249H6.5V18.6249H6V19.6249ZM1 19.6249H6V18.6249H1V19.6249Z" fill="#B1060F"/>
<line x1="10.5" y1="11.6249" x2="10.5" y2="8.62488" stroke="#B1060F" stroke-linecap="round"/>
<path d="M10.5 8.62488L21 13.6249" stroke="#B1060F" stroke-linecap="round"/>
</svg>
