<svg width="35" height="35" viewBox="0 0 35 35" fill="none" xmlns="http://www.w3.org/2000/svg">
<rect x="0.5" y="0.5" width="34" height="34" rx="1.5" stroke="#B1060F"/>
<line x1="11.7" x2="11.7" y2="33.6" stroke="#B1060F"/>
<line x1="11.7" x2="11.7" y2="33.6" stroke="#B1060F"/>
<line x1="22.9" x2="22.9" y2="33.6" stroke="#B1060F"/>
<line x1="22.9" x2="22.9" y2="33.6" stroke="#B1060F"/>
<line x1="33.6" y1="11.7" x2="1.4" y2="11.7" stroke="#B1060F"/>
<line x1="33.6" y1="11.7" x2="1.4" y2="11.7" stroke="#B1060F"/>
<line x1="33.6" y1="22.9" x2="1.4" y2="22.9" stroke="#B1060F"/>
<line x1="33.6" y1="22.9" x2="1.4" y2="22.9" stroke="#B1060F"/>
<path d="M5.34894 2.92705C5.6483 2.00574 6.9517 2.00574 7.25106 2.92705L7.48992 3.66221C7.6238 4.07423 8.00775 4.35319 8.44098 4.35319H9.21397C10.1827 4.35319 10.5855 5.59281 9.80176 6.16221L9.17639 6.61656C8.82591 6.87121 8.67925 7.32257 8.81312 7.7346L9.05199 8.46976C9.35134 9.39107 8.29686 10.1572 7.51315 9.58779L6.88778 9.13344C6.5373 8.87879 6.0627 8.87879 5.71222 9.13344L5.08685 9.58779C4.30314 10.1572 3.24866 9.39107 3.54801 8.46976L3.78688 7.7346C3.92075 7.32257 3.77409 6.87121 3.42361 6.61656L2.79824 6.16221C2.01453 5.59281 2.4173 4.35319 3.38603 4.35319H4.15902C4.59225 4.35319 4.9762 4.07423 5.11008 3.66221L5.34894 2.92705Z" fill="#FFEB00"/>
<path d="M27.7489 25.3271C28.0483 24.4058 29.3517 24.4058 29.6511 25.3271L29.8899 26.0622C30.0238 26.4743 30.4078 26.7532 30.841 26.7532H31.614C32.5827 26.7532 32.9855 27.9928 32.2018 28.5622L31.5764 29.0166C31.2259 29.2712 31.0792 29.7226 31.2131 30.1346L31.452 30.8698C31.7513 31.7911 30.6969 32.5572 29.9131 31.9878L29.2878 31.5335C28.9373 31.2788 28.4627 31.2788 28.1122 31.5335L27.4868 31.9878C26.7031 32.5572 25.6487 31.7911 25.948 30.8698L26.1869 30.1346C26.3208 29.7226 26.1741 29.2712 25.8236 29.0166L25.1982 28.5622C24.4145 27.9928 24.8173 26.7532 25.786 26.7532H26.559C26.9922 26.7532 27.3762 26.4743 27.5101 26.0622L27.7489 25.3271Z" fill="#BD00FF"/>
<path d="M27.7489 14.1271C28.0483 13.2058 29.3517 13.2058 29.6511 14.1271L29.8899 14.8622C30.0238 15.2742 30.4078 15.5532 30.841 15.5532H31.614C32.5827 15.5532 32.9855 16.7928 32.2018 17.3622L31.5764 17.8166C31.2259 18.0712 31.0792 18.5226 31.2131 18.9346L31.452 19.6698C31.7513 20.5911 30.6969 21.3572 29.9131 20.7878L29.2878 20.3334C28.9373 20.0788 28.4627 20.0788 28.1122 20.3334L27.4868 20.7878C26.7031 21.3572 25.6487 20.5911 25.948 19.6698L26.1869 18.9346C26.3208 18.5226 26.1741 18.0712 25.8236 17.8166L25.1982 17.3622C24.4145 16.7928 24.8173 15.5532 25.786 15.5532H26.559C26.9922 15.5532 27.3762 15.2742 27.5101 14.8622L27.7489 14.1271Z" fill="#53ACFF"/>
<path d="M16.5489 14.1271C16.8483 13.2058 18.1517 13.2058 18.4511 14.1271L18.6899 14.8622C18.8238 15.2742 19.2078 15.5532 19.641 15.5532H20.414C21.3827 15.5532 21.7855 16.7928 21.0018 17.3622L20.3764 17.8166C20.0259 18.0712 19.8792 18.5226 20.0131 18.9346L20.252 19.6698C20.5513 20.5911 19.4969 21.3572 18.7131 20.7878L18.0878 20.3334C17.7373 20.0788 17.2627 20.0788 16.9122 20.3334L16.2868 20.7878C15.5031 21.3572 14.4487 20.5911 14.748 19.6698L14.9869 18.9346C15.1208 18.5226 14.9741 18.0712 14.6236 17.8166L13.9982 17.3622C13.2145 16.7928 13.6173 15.5532 14.586 15.5532H15.359C15.7922 15.5532 16.1762 15.2742 16.3101 14.8622L16.5489 14.1271Z" fill="#FF007A"/>
<path d="M5.34894 25.3271C5.6483 24.4058 6.9517 24.4058 7.25106 25.3271L7.48992 26.0622C7.6238 26.4743 8.00775 26.7532 8.44098 26.7532H9.21397C10.1827 26.7532 10.5855 27.9928 9.80176 28.5622L9.17639 29.0166C8.82591 29.2712 8.67925 29.7226 8.81312 30.1346L9.05199 30.8698C9.35134 31.7911 8.29686 32.5572 7.51315 31.9878L6.88778 31.5335C6.5373 31.2788 6.0627 31.2788 5.71222 31.5335L5.08685 31.9878C4.30314 32.5572 3.24866 31.7911 3.54801 30.8698L3.78688 30.1346C3.92075 29.7226 3.77409 29.2712 3.42361 29.0166L2.79824 28.5622C2.01453 27.9928 2.4173 26.7532 3.38603 26.7532H4.15902C4.59225 26.7532 4.9762 26.4743 5.11008 26.0622L5.34894 25.3271Z" fill="#FFAC00"/>
</svg>
