<svg width="44" height="48" viewBox="0 0 44 48" fill="none" xmlns="http://www.w3.org/2000/svg">
<rect x="0.521665" y="1.58514" width="24" height="45" rx="2.5" transform="rotate(-2.53969 0.521665 1.58514)" stroke="#B1060F"/>
<rect x="11" y="1.07471" width="1.74098" height="45.0048" transform="rotate(-2.45924 11 1.07471)" fill="#B1060F"/>
<circle cx="6" cy="10" r="3.5" fill="#FFEB00" stroke="#B1060F"/>
<circle cx="19" cy="9" r="3.5" fill="#BD00FF" stroke="#B1060F"/>
<circle cx="19" cy="20" r="3.5" fill="#0085FF" stroke="#B1060F"/>
<circle cx="7" cy="20" r="3.5" fill="#FFAC00" stroke="#B1060F"/>
<circle cx="7" cy="30" r="3.5" fill="#FF3C3C" stroke="#B1060F"/>
<circle cx="8" cy="40" r="3.5" fill="#FF007A" stroke="#B1060F"/>
<circle cx="20" cy="30" r="3.5" fill="#15FF01" stroke="#B1060F"/>
<circle cx="21" cy="40" r="3.5" fill="white" stroke="#B1060F"/>
<path d="M23.2348 33.7601C23.9224 31.8821 25.1071 31.2509 26.1444 31.6307C27.5529 32.1464 27.5695 34.2823 26.991 35.1354C25.8338 36.8416 25.1924 37.1392 21.939 40.2077C22.3291 37.6882 22.7601 35.0567 23.2348 33.7601Z" fill="#B1060F"/>
<path d="M26.3497 29.3453C26.6472 28.7634 26.6096 28.5922 27.6577 29.1281C28.7059 29.6641 28.3655 30.0851 28.068 30.6669C27.7704 31.2487 27.4489 32.1223 26.4007 31.5864C25.3526 31.0504 26.0521 29.9271 26.3497 29.3453Z" stroke="#B1060F"/>
<path d="M26.321 29.3306C26.6186 28.7488 26.5794 28.5768 27.6434 29.1208C28.7074 29.6649 28.3655 30.085 28.0679 30.6669C27.7704 31.2487 27.4504 32.1231 26.3864 31.579C25.3224 31.035 26.0235 29.9124 26.321 29.3306Z" stroke="#B1060F"/>
<path d="M36.1484 8.67054C39.4488 2.2164 40.6811 1.34327 41.7451 1.88733C42.809 2.4314 40.5468 7.94303 37.2464 14.3972C33.9461 20.8513 29.1954 29.9729 27.6454 28.9855C25.6111 28.1281 32.8481 15.1247 36.1484 8.67054Z" stroke="#B1060F"/>
</svg>
